<svg xmlns="http://www.w3.org/2000/svg" viewBox="0 0 1500 1500">
  <defs>
    <linearGradient id="strokeGradient" x1="0%" y1="0%" x2="100%" y2="100%">
      <stop offset="0%" style="stop-color:#000000" />
      <stop offset="50%" style="stop-color:#404040" />
      <stop offset="100%" style="stop-color:#808080" />
    </linearGradient>
    <linearGradient id="fillGradient" x1="100%" y1="0%" x2="0%" y2="100%">
      <stop offset="0%" style="stop-color:#e0e0e0" />
      <stop offset="50%" style="stop-color:#c0c0c0" />
      <stop offset="100%" style="stop-color:#a0a0a0" />
    </linearGradient>
    <!-- Adjusted orange gradient for subtlety -->
    <linearGradient id="orangeGradient" x1="0%" y1="0%" x2="100%" y2="100%">
      <stop offset="0%" style="stop-color:rgba(255, 107, 53, 0.8)" />
      <stop offset="100%" style="stop-color:rgba(255, 146, 85, 0.6)" />
    </linearGradient>
  </defs>
  <g transform="translate(0.000000,1500.000000) scale(0.100000,-0.100000)"
     fill="url(#fillGradient)" stroke="url(#strokeGradient)" stroke-width="40">
    <path d="M6610 11240 c-63 -43 -191 -131 -285 -195 -232 -158 -421 -287 -540
    -370 -55 -38 -167 -115 -250 -171 -82 -55 -185 -125 -228 -155 -121 -84 -435
    -298 -622 -425 -93 -63 -215 -147 -270 -185 -55 -39 -143 -99 -195 -134 -171
    -115 -205 -141 -214 -168 -13 -37 4 -65 71 -112 31 -22 92 -67 137 -99 48 -36
    91 -59 106 -59 15 0 89 43 192 114 344 235 476 326 603 414 39 27 120 83 181
    125 287 195 875 598 1015 695 198 138 232 161 322 227 51 37 98 68 105 68 7 0
    50 -25 95 -57 45 -31 128 -88 185 -127 321 -222 398 -274 502 -344 63 -42 117
    -79 120 -83 3 -3 97 -68 210 -144 113 -76 230 -157 260 -180 30 -23 82 -58
    115 -79 33 -21 98 -64 145 -97 47 -33 135 -93 195 -135 61 -41 151 -104 200
    -139 243 -172 373 -255 399 -255 17 0 50 17 84 43 31 24 84 62 117 84 68 46
    100 78 109 110 10 31 -35 75 -169 165 -171 116 -305 208 -360 248 -27 20 -112
    79 -188 131 -76 52 -184 126 -240 164 -56 39 -145 99 -197 135 -52 35 -129 89
    -170 120 -41 31 -82 59 -90 63 -8 4 -76 49 -150 101 -74 52 -184 128 -245 170
    -60 41 -168 115 -240 165 -71 50 -182 126 -245 169 -199 136 -352 242 -378
    262 -42 34 -70 25 -192 -60z"/>
    <path d="M4729 11291 c-38 -29 -457 -315 -508 -346 -9 -5 -32 -22 -51 -36 -19
    -14 -156 -109 -305 -209 -313 -213 -468 -318 -545 -371 -30 -21 -113 -78 -185
    -127 -72 -49 -140 -103 -153 -122 l-22 -33 2 -1806 c3 -1919 1 -1827 48 -1872
    9 -9 57 -43 106 -76 107 -71 356 -240 439 -298 170 -118 533 -365 574 -390 8
    -5 40 -28 71 -51 54 -40 375 -259 409 -279 9 -5 39 -27 67 -47 66 -48 99 -61
    125 -48 18 10 19 23 19 190 0 144 -3 188 -17 222 -31 81 -43 91 -367 313 -81
    55 -204 139 -274 188 -149 103 -322 221 -430 294 -211 143 -276 189 -303 214
    l-29 27 1 1609 c0 884 4 1616 7 1626 4 9 29 32 55 50 284 194 949 643 1057
    713 173 113 240 169 274 231 25 44 26 51 26 233 0 104 -3 195 -6 204 -8 22
    -56 20 -85 -3z"/>
    <path d="M8680 11291 c-15 -28 -13 -351 3 -403 19 -64 87 -130 240 -232 78
    -52 194 -130 257 -173 145 -100 478 -326 677 -458 83 -56 170 -117 192 -134
    l41 -33 0 -1608 c0 -885 -3 -1615 -6 -1624 -6 -15 -71 -62 -334 -241 -292
    -199 -628 -427 -755 -513 -243 -165 -272 -188 -301 -250 -26 -54 -28 -66 -32
    -241 -4 -170 -3 -185 14 -198 30 -22 48 -16 146 50 167 113 381 259 463 315
    198 136 317 218 333 227 9 6 33 22 52 36 19 15 125 87 235 161 110 74 232 157
    270 183 65 45 102 70 245 163 30 20 65 47 78 61 l22 24 0 1825 0 1826 -21 30
    c-22 32 -91 81 -444 320 -110 75 -236 161 -280 191 -44 31 -150 103 -235 161
    -85 58 -209 142 -275 188 -572 393 -563 388 -585 347z"/>
    <!-- Hour/minute hands with softened orange gradient -->
    <path d="M6672 10133 c-51 -18 -99 -63 -123 -118 -18 -38 -19 -94 -19 -1052
    l0 -1012 22 -42 c23 -45 80 -92 135 -110 35 -11 68 -4 158 36 17 7 82 34 145
    60 63 26 130 53 147 61 18 8 47 21 65 29 18 8 59 26 91 40 32 14 117 50 190
    79 73 30 158 66 191 80 32 14 62 26 67 26 5 0 39 14 76 31 72 33 105 47 165
    73 72 30 108 46 141 60 17 8 73 31 122 51 125 50 136 55 168 71 16 8 34 14 40
    14 6 0 41 14 77 31 36 17 81 37 100 46 98 43 121 60 156 115 19 29 24 52 24
    98 0 98 -43 161 -138 204 -40 18 -43 18 -89 1 -62 -22 -447 -179 -518 -210
    -34 -15 -311 -130 -540 -225 -82 -34 -163 -68 -180 -75 -16 -8 -50 -23 -75
    -34 -138 -62 -268 -114 -290 -115 l-25 -1 -5 830 c-6 917 -1 854 -69 920 -56
    53 -129 66 -209 38z" fill="url(#orangeGradient)" stroke="url(#strokeGradient)"/>
    <path d="M4176 7195 c-76 -58 -145 -114 -153 -125 -30 -43 -13 -61 227 -222
    85 -57 187 -126 225 -153 39 -27 117 -81 175 -120 58 -39 143 -98 190 -130 47
    -32 144 -98 215 -146 72 -49 166 -113 210 -144 44 -31 125 -86 180 -124 55
    -37 132 -89 170 -116 39 -26 138 -94 220 -150 83 -56 180 -122 218 -148 125
    -87 202 -140 317 -219 63 -43 156 -108 205 -143 126 -90 163 -109 189 -97 24
    11 129 79 222 144 34 24 139 96 235 161 96 65 233 159 304 208 72 50 162 112
    201 138 39 27 95 65 125 87 30 21 126 87 214 146 88 60 239 163 335 229 96 66
    198 135 225 154 65 44 373 255 467 321 40 28 118 81 173 119 255 174 259 182
    128 276 -41 30 -102 75 -136 100 -34 25 -70 48 -80 52 -24 9 -66 -14 -207
    -112 -176 -122 -399 -275 -418 -286 -9 -5 -33 -22 -52 -36 -19 -14 -129 -90
    -245 -168 -115 -78 -291 -198 -390 -266 -99 -68 -256 -176 -350 -240 -304
    -208 -407 -279 -584 -403 -95 -67 -182 -122 -194 -122 -11 0 -28 6 -36 14 -18
    16 -690 483 -766 532 -27 18 -61 41 -75 51 -14 11 -70 51 -125 88 -224 154
    -343 236 -502 344 -93 63 -193 133 -223 156 -30 23 -62 45 -70 48 -8 4 -76 50
    -150 101 -273 192 -446 306 -460 306 -8 0 -78 -48 -154 -105z"/>
  </g>
</svg>